<mxfile host="app.diagrams.net" modified="2023-07-15T07:45:10.316Z" agent="Mozilla/5.0 (Windows NT 10.0; Win64; x64; rv:109.0) Gecko/20100101 Firefox/114.0" etag="651p17Jx4Phcj303BYrK" version="21.6.1" type="device">
  <diagram name="Page-1" id="cFIZZ4CqsxknPMJWiG0X">
    <mxGraphModel dx="1012" dy="999" grid="1" gridSize="10" guides="1" tooltips="1" connect="1" arrows="1" fold="1" page="1" pageScale="1" pageWidth="850" pageHeight="1100" math="0" shadow="0">
      <root>
        <mxCell id="0" />
        <mxCell id="1" parent="0" />
        <mxCell id="CsXaPJ-_1LcKrDsVRI_9-2" value="CPU" style="strokeWidth=2;html=1;shape=mxgraph.flowchart.start_1;whiteSpace=wrap;fontFamily=Verdana;" vertex="1" parent="1">
          <mxGeometry x="10" y="200" width="100" height="60" as="geometry" />
        </mxCell>
        <mxCell id="CsXaPJ-_1LcKrDsVRI_9-33" value="" style="edgeStyle=orthogonalEdgeStyle;rounded=0;orthogonalLoop=1;jettySize=auto;html=1;strokeWidth=1;fontFamily=Verdana;" edge="1" parent="1" source="CsXaPJ-_1LcKrDsVRI_9-3" target="CsXaPJ-_1LcKrDsVRI_9-32">
          <mxGeometry relative="1" as="geometry" />
        </mxCell>
        <mxCell id="CsXaPJ-_1LcKrDsVRI_9-3" value="Intel Core i5 3570" style="rounded=0;whiteSpace=wrap;html=1;strokeWidth=2;fontFamily=Verdana;strokeColor=#0171C3;" vertex="1" parent="1">
          <mxGeometry x="200" y="200" width="120" height="60" as="geometry" />
        </mxCell>
        <mxCell id="CsXaPJ-_1LcKrDsVRI_9-4" value="" style="endArrow=classic;html=1;rounded=0;exitX=1;exitY=0.5;exitDx=0;exitDy=0;exitPerimeter=0;entryX=0;entryY=0.5;entryDx=0;entryDy=0;fontFamily=Verdana;" edge="1" parent="1" source="CsXaPJ-_1LcKrDsVRI_9-2" target="CsXaPJ-_1LcKrDsVRI_9-3">
          <mxGeometry width="50" height="50" relative="1" as="geometry">
            <mxPoint x="410" y="440" as="sourcePoint" />
            <mxPoint x="460" y="390" as="targetPoint" />
          </mxGeometry>
        </mxCell>
        <mxCell id="CsXaPJ-_1LcKrDsVRI_9-5" value="Motherboard" style="strokeWidth=2;html=1;shape=mxgraph.flowchart.start_1;whiteSpace=wrap;fontFamily=Verdana;" vertex="1" parent="1">
          <mxGeometry x="10" y="280" width="100" height="60" as="geometry" />
        </mxCell>
        <mxCell id="CsXaPJ-_1LcKrDsVRI_9-31" value="" style="edgeStyle=orthogonalEdgeStyle;rounded=0;orthogonalLoop=1;jettySize=auto;html=1;strokeWidth=1;fontFamily=Verdana;" edge="1" parent="1" source="CsXaPJ-_1LcKrDsVRI_9-6" target="CsXaPJ-_1LcKrDsVRI_9-30">
          <mxGeometry relative="1" as="geometry" />
        </mxCell>
        <mxCell id="CsXaPJ-_1LcKrDsVRI_9-6" value="Gigabyte GA-H77M-D3H" style="rounded=0;whiteSpace=wrap;html=1;strokeWidth=2;fontFamily=Verdana;labelBackgroundColor=none;fillColor=#FFFFFF;strokeColor=#005DAA;" vertex="1" parent="1">
          <mxGeometry x="200" y="280" width="120" height="60" as="geometry" />
        </mxCell>
        <mxCell id="CsXaPJ-_1LcKrDsVRI_9-7" value="" style="endArrow=classic;html=1;rounded=0;exitX=1;exitY=0.5;exitDx=0;exitDy=0;exitPerimeter=0;entryX=0;entryY=0.5;entryDx=0;entryDy=0;fontFamily=Verdana;" edge="1" parent="1" source="CsXaPJ-_1LcKrDsVRI_9-5" target="CsXaPJ-_1LcKrDsVRI_9-6">
          <mxGeometry width="50" height="50" relative="1" as="geometry">
            <mxPoint x="410" y="520" as="sourcePoint" />
            <mxPoint x="460" y="470" as="targetPoint" />
          </mxGeometry>
        </mxCell>
        <mxCell id="CsXaPJ-_1LcKrDsVRI_9-8" value="RAM" style="strokeWidth=2;html=1;shape=mxgraph.flowchart.start_1;whiteSpace=wrap;fontFamily=Verdana;" vertex="1" parent="1">
          <mxGeometry x="10" y="360" width="100" height="60" as="geometry" />
        </mxCell>
        <mxCell id="CsXaPJ-_1LcKrDsVRI_9-36" value="" style="edgeStyle=orthogonalEdgeStyle;rounded=0;orthogonalLoop=1;jettySize=auto;html=1;strokeWidth=1;fontFamily=Verdana;" edge="1" parent="1" source="CsXaPJ-_1LcKrDsVRI_9-9" target="CsXaPJ-_1LcKrDsVRI_9-35">
          <mxGeometry relative="1" as="geometry" />
        </mxCell>
        <mxCell id="CsXaPJ-_1LcKrDsVRI_9-9" value="Corsair Vengeance DDR3 1600MHz 4GB x2" style="rounded=0;whiteSpace=wrap;html=1;strokeWidth=1;fontFamily=Verdana;" vertex="1" parent="1">
          <mxGeometry x="200" y="360" width="120" height="60" as="geometry" />
        </mxCell>
        <mxCell id="CsXaPJ-_1LcKrDsVRI_9-10" value="" style="endArrow=classic;html=1;rounded=0;exitX=1;exitY=0.5;exitDx=0;exitDy=0;exitPerimeter=0;entryX=0;entryY=0.5;entryDx=0;entryDy=0;fontFamily=Verdana;" edge="1" parent="1" source="CsXaPJ-_1LcKrDsVRI_9-8" target="CsXaPJ-_1LcKrDsVRI_9-9">
          <mxGeometry width="50" height="50" relative="1" as="geometry">
            <mxPoint x="410" y="600" as="sourcePoint" />
            <mxPoint x="460" y="550" as="targetPoint" />
          </mxGeometry>
        </mxCell>
        <mxCell id="CsXaPJ-_1LcKrDsVRI_9-14" value="GPU" style="strokeWidth=2;html=1;shape=mxgraph.flowchart.start_1;whiteSpace=wrap;fontFamily=Verdana;" vertex="1" parent="1">
          <mxGeometry x="10" y="440" width="100" height="60" as="geometry" />
        </mxCell>
        <mxCell id="CsXaPJ-_1LcKrDsVRI_9-41" value="" style="edgeStyle=orthogonalEdgeStyle;rounded=0;orthogonalLoop=1;jettySize=auto;html=1;exitX=1;exitY=0.5;exitDx=0;exitDy=0;strokeWidth=1;fontFamily=Verdana;" edge="1" parent="1" source="CsXaPJ-_1LcKrDsVRI_9-67" target="CsXaPJ-_1LcKrDsVRI_9-40">
          <mxGeometry relative="1" as="geometry">
            <mxPoint x="570" y="470" as="sourcePoint" />
          </mxGeometry>
        </mxCell>
        <mxCell id="CsXaPJ-_1LcKrDsVRI_9-74" style="edgeStyle=orthogonalEdgeStyle;rounded=0;orthogonalLoop=1;jettySize=auto;html=1;entryX=0;entryY=0.5;entryDx=0;entryDy=0;strokeWidth=1;fontFamily=Verdana;" edge="1" parent="1" source="CsXaPJ-_1LcKrDsVRI_9-15" target="CsXaPJ-_1LcKrDsVRI_9-67">
          <mxGeometry relative="1" as="geometry" />
        </mxCell>
        <mxCell id="CsXaPJ-_1LcKrDsVRI_9-15" value="Intel HD Graphics 2500" style="rounded=0;whiteSpace=wrap;html=1;strokeWidth=2;fontFamily=Verdana;strokeColor=#0171C3;" vertex="1" parent="1">
          <mxGeometry x="200" y="440" width="120" height="60" as="geometry" />
        </mxCell>
        <mxCell id="CsXaPJ-_1LcKrDsVRI_9-16" value="" style="endArrow=classic;html=1;rounded=0;exitX=1;exitY=0.5;exitDx=0;exitDy=0;exitPerimeter=0;entryX=0;entryY=0.5;entryDx=0;entryDy=0;fontFamily=Verdana;" edge="1" parent="1" source="CsXaPJ-_1LcKrDsVRI_9-14" target="CsXaPJ-_1LcKrDsVRI_9-15">
          <mxGeometry width="50" height="50" relative="1" as="geometry">
            <mxPoint x="410" y="680" as="sourcePoint" />
            <mxPoint x="460" y="630" as="targetPoint" />
          </mxGeometry>
        </mxCell>
        <mxCell id="CsXaPJ-_1LcKrDsVRI_9-76" style="edgeStyle=orthogonalEdgeStyle;rounded=0;orthogonalLoop=1;jettySize=auto;html=1;entryX=0;entryY=0.5;entryDx=0;entryDy=0;" edge="1" parent="1" source="CsXaPJ-_1LcKrDsVRI_9-17" target="CsXaPJ-_1LcKrDsVRI_9-68">
          <mxGeometry relative="1" as="geometry">
            <Array as="points">
              <mxPoint x="420" y="1010" />
              <mxPoint x="420" y="970" />
            </Array>
          </mxGeometry>
        </mxCell>
        <mxCell id="CsXaPJ-_1LcKrDsVRI_9-78" style="edgeStyle=orthogonalEdgeStyle;rounded=0;orthogonalLoop=1;jettySize=auto;html=1;entryX=0;entryY=0.5;entryDx=0;entryDy=0;" edge="1" parent="1" source="CsXaPJ-_1LcKrDsVRI_9-17" target="CsXaPJ-_1LcKrDsVRI_9-62">
          <mxGeometry relative="1" as="geometry">
            <Array as="points">
              <mxPoint x="420" y="1010" />
              <mxPoint x="420" y="1050" />
            </Array>
          </mxGeometry>
        </mxCell>
        <mxCell id="CsXaPJ-_1LcKrDsVRI_9-79" style="edgeStyle=orthogonalEdgeStyle;rounded=0;orthogonalLoop=1;jettySize=auto;html=1;entryX=0;entryY=0.5;entryDx=0;entryDy=0;" edge="1" parent="1" source="CsXaPJ-_1LcKrDsVRI_9-17" target="CsXaPJ-_1LcKrDsVRI_9-58">
          <mxGeometry relative="1" as="geometry">
            <Array as="points">
              <mxPoint x="420" y="1010" />
              <mxPoint x="420" y="1130" />
            </Array>
          </mxGeometry>
        </mxCell>
        <mxCell id="CsXaPJ-_1LcKrDsVRI_9-80" style="edgeStyle=orthogonalEdgeStyle;rounded=0;orthogonalLoop=1;jettySize=auto;html=1;entryX=0;entryY=0.5;entryDx=0;entryDy=0;" edge="1" parent="1" source="CsXaPJ-_1LcKrDsVRI_9-17" target="CsXaPJ-_1LcKrDsVRI_9-18">
          <mxGeometry relative="1" as="geometry">
            <Array as="points">
              <mxPoint x="160" y="1010" />
              <mxPoint x="160" y="890" />
            </Array>
          </mxGeometry>
        </mxCell>
        <mxCell id="CsXaPJ-_1LcKrDsVRI_9-81" style="edgeStyle=orthogonalEdgeStyle;rounded=0;orthogonalLoop=1;jettySize=auto;html=1;entryX=0;entryY=0.5;entryDx=0;entryDy=0;" edge="1" parent="1" source="CsXaPJ-_1LcKrDsVRI_9-17" target="CsXaPJ-_1LcKrDsVRI_9-56">
          <mxGeometry relative="1" as="geometry">
            <Array as="points">
              <mxPoint x="160" y="1010" />
              <mxPoint x="160" y="810" />
            </Array>
          </mxGeometry>
        </mxCell>
        <mxCell id="CsXaPJ-_1LcKrDsVRI_9-82" style="edgeStyle=orthogonalEdgeStyle;rounded=0;orthogonalLoop=1;jettySize=auto;html=1;entryX=0;entryY=0.5;entryDx=0;entryDy=0;" edge="1" parent="1" source="CsXaPJ-_1LcKrDsVRI_9-17" target="CsXaPJ-_1LcKrDsVRI_9-69">
          <mxGeometry relative="1" as="geometry">
            <Array as="points">
              <mxPoint x="420" y="1010" />
              <mxPoint x="420" y="1210" />
            </Array>
          </mxGeometry>
        </mxCell>
        <mxCell id="CsXaPJ-_1LcKrDsVRI_9-17" value="Storage" style="strokeWidth=2;html=1;shape=mxgraph.flowchart.start_1;whiteSpace=wrap;fontFamily=Verdana;" vertex="1" parent="1">
          <mxGeometry x="10" y="980" width="100" height="60" as="geometry" />
        </mxCell>
        <mxCell id="CsXaPJ-_1LcKrDsVRI_9-18" value="HDD Seagate Barracuda 7200RPM 2TB" style="rounded=0;whiteSpace=wrap;html=1;strokeWidth=2;fontFamily=Verdana;fillColor=#FFFFFF;strokeColor=#70BF4E;" vertex="1" parent="1">
          <mxGeometry x="200" y="860" width="120" height="60" as="geometry" />
        </mxCell>
        <mxCell id="CsXaPJ-_1LcKrDsVRI_9-20" value="Case" style="strokeWidth=2;html=1;shape=mxgraph.flowchart.start_1;whiteSpace=wrap;fontFamily=Verdana;" vertex="1" parent="1">
          <mxGeometry x="10" y="600" width="100" height="60" as="geometry" />
        </mxCell>
        <mxCell id="CsXaPJ-_1LcKrDsVRI_9-46" value="" style="edgeStyle=orthogonalEdgeStyle;rounded=0;orthogonalLoop=1;jettySize=auto;html=1;strokeWidth=1;fontFamily=Verdana;" edge="1" parent="1" source="CsXaPJ-_1LcKrDsVRI_9-21" target="CsXaPJ-_1LcKrDsVRI_9-45">
          <mxGeometry relative="1" as="geometry" />
        </mxCell>
        <mxCell id="CsXaPJ-_1LcKrDsVRI_9-21" value="Aywun Mini Tower Case" style="rounded=0;whiteSpace=wrap;html=1;strokeWidth=1;fontFamily=Verdana;" vertex="1" parent="1">
          <mxGeometry x="200" y="600" width="120" height="60" as="geometry" />
        </mxCell>
        <mxCell id="CsXaPJ-_1LcKrDsVRI_9-22" value="" style="endArrow=classic;html=1;rounded=0;exitX=1;exitY=0.5;exitDx=0;exitDy=0;exitPerimeter=0;entryX=0;entryY=0.5;entryDx=0;entryDy=0;fontFamily=Verdana;" edge="1" parent="1" source="CsXaPJ-_1LcKrDsVRI_9-20" target="CsXaPJ-_1LcKrDsVRI_9-21">
          <mxGeometry width="50" height="50" relative="1" as="geometry">
            <mxPoint x="410" y="840" as="sourcePoint" />
            <mxPoint x="460" y="790" as="targetPoint" />
          </mxGeometry>
        </mxCell>
        <mxCell id="CsXaPJ-_1LcKrDsVRI_9-23" value="CPU Cooling" style="strokeWidth=2;html=1;shape=mxgraph.flowchart.start_1;whiteSpace=wrap;fontFamily=Verdana;" vertex="1" parent="1">
          <mxGeometry x="10" y="520" width="100" height="60" as="geometry" />
        </mxCell>
        <mxCell id="CsXaPJ-_1LcKrDsVRI_9-48" value="" style="edgeStyle=orthogonalEdgeStyle;rounded=0;orthogonalLoop=1;jettySize=auto;html=1;strokeWidth=1;fontFamily=Verdana;" edge="1" parent="1" source="CsXaPJ-_1LcKrDsVRI_9-24" target="CsXaPJ-_1LcKrDsVRI_9-47">
          <mxGeometry relative="1" as="geometry" />
        </mxCell>
        <mxCell id="CsXaPJ-_1LcKrDsVRI_9-24" value="Intel Stock Cooler" style="rounded=0;whiteSpace=wrap;html=1;strokeWidth=2;fontFamily=Verdana;strokeColor=#0171C3;" vertex="1" parent="1">
          <mxGeometry x="200" y="520" width="120" height="60" as="geometry" />
        </mxCell>
        <mxCell id="CsXaPJ-_1LcKrDsVRI_9-25" value="" style="endArrow=classic;html=1;rounded=0;exitX=1;exitY=0.5;exitDx=0;exitDy=0;exitPerimeter=0;entryX=0;entryY=0.5;entryDx=0;entryDy=0;fontFamily=Verdana;" edge="1" parent="1" source="CsXaPJ-_1LcKrDsVRI_9-23" target="CsXaPJ-_1LcKrDsVRI_9-24">
          <mxGeometry width="50" height="50" relative="1" as="geometry">
            <mxPoint x="410" y="760" as="sourcePoint" />
            <mxPoint x="460" y="710" as="targetPoint" />
          </mxGeometry>
        </mxCell>
        <mxCell id="CsXaPJ-_1LcKrDsVRI_9-26" value="Power Supply" style="strokeWidth=2;html=1;shape=mxgraph.flowchart.start_1;whiteSpace=wrap;fontFamily=Verdana;" vertex="1" parent="1">
          <mxGeometry x="10" y="680" width="100" height="60" as="geometry" />
        </mxCell>
        <mxCell id="CsXaPJ-_1LcKrDsVRI_9-55" value="" style="edgeStyle=orthogonalEdgeStyle;rounded=0;orthogonalLoop=1;jettySize=auto;html=1;strokeWidth=1;fontFamily=Verdana;" edge="1" parent="1" source="CsXaPJ-_1LcKrDsVRI_9-27" target="CsXaPJ-_1LcKrDsVRI_9-54">
          <mxGeometry relative="1" as="geometry" />
        </mxCell>
        <mxCell id="CsXaPJ-_1LcKrDsVRI_9-27" value="Aywun A1-5000 500W" style="rounded=0;whiteSpace=wrap;html=1;strokeWidth=1;fontFamily=Verdana;fillColor=#FFFFFF;" vertex="1" parent="1">
          <mxGeometry x="200" y="680" width="120" height="60" as="geometry" />
        </mxCell>
        <mxCell id="CsXaPJ-_1LcKrDsVRI_9-28" value="" style="endArrow=classic;html=1;rounded=0;exitX=1;exitY=0.5;exitDx=0;exitDy=0;exitPerimeter=0;entryX=0;entryY=0.5;entryDx=0;entryDy=0;fontFamily=Verdana;" edge="1" parent="1" source="CsXaPJ-_1LcKrDsVRI_9-26" target="CsXaPJ-_1LcKrDsVRI_9-27">
          <mxGeometry width="50" height="50" relative="1" as="geometry">
            <mxPoint x="410" y="920" as="sourcePoint" />
            <mxPoint x="460" y="870" as="targetPoint" />
          </mxGeometry>
        </mxCell>
        <mxCell id="CsXaPJ-_1LcKrDsVRI_9-30" value="ASRock x570 Steel Legend WiFi AX" style="rounded=0;whiteSpace=wrap;html=1;strokeWidth=1;fontFamily=Verdana;strokeColor=#85C226;" vertex="1" parent="1">
          <mxGeometry x="680" y="280" width="120" height="60" as="geometry" />
        </mxCell>
        <mxCell id="CsXaPJ-_1LcKrDsVRI_9-32" value="AMD Ryzen 5 5600X" style="rounded=0;whiteSpace=wrap;html=1;strokeWidth=2;fontFamily=Verdana;strokeColor=#E41B23;" vertex="1" parent="1">
          <mxGeometry x="680" y="200" width="120" height="60" as="geometry" />
        </mxCell>
        <mxCell id="CsXaPJ-_1LcKrDsVRI_9-39" value="" style="edgeStyle=orthogonalEdgeStyle;rounded=0;orthogonalLoop=1;jettySize=auto;html=1;strokeWidth=1;fontFamily=Verdana;" edge="1" parent="1" source="CsXaPJ-_1LcKrDsVRI_9-35" target="CsXaPJ-_1LcKrDsVRI_9-38">
          <mxGeometry relative="1" as="geometry" />
        </mxCell>
        <mxCell id="CsXaPJ-_1LcKrDsVRI_9-35" value="Corsair Vengeance DDR3 1600MHz 4GB x4" style="rounded=0;whiteSpace=wrap;html=1;strokeWidth=1;fontFamily=Verdana;strokeColor=#000000;" vertex="1" parent="1">
          <mxGeometry x="360" y="360" width="120" height="60" as="geometry" />
        </mxCell>
        <mxCell id="CsXaPJ-_1LcKrDsVRI_9-38" value="G.Skill Ripjaws V DDR4-3600 32GB (16GB x2)" style="rounded=0;whiteSpace=wrap;html=1;strokeWidth=2;fontFamily=Verdana;strokeColor=#ED1C24;" vertex="1" parent="1">
          <mxGeometry x="680" y="360" width="120" height="60" as="geometry" />
        </mxCell>
        <mxCell id="CsXaPJ-_1LcKrDsVRI_9-43" value="" style="edgeStyle=orthogonalEdgeStyle;rounded=0;orthogonalLoop=1;jettySize=auto;html=1;strokeWidth=1;fontFamily=Verdana;" edge="1" parent="1" source="CsXaPJ-_1LcKrDsVRI_9-40" target="CsXaPJ-_1LcKrDsVRI_9-42">
          <mxGeometry relative="1" as="geometry" />
        </mxCell>
        <mxCell id="CsXaPJ-_1LcKrDsVRI_9-40" value="MSI GTX 1060 GAMING X 6G" style="rounded=0;whiteSpace=wrap;html=1;strokeWidth=2;fontFamily=Verdana;strokeColor=#76B900;" vertex="1" parent="1">
          <mxGeometry x="520" y="440" width="120" height="60" as="geometry" />
        </mxCell>
        <mxCell id="CsXaPJ-_1LcKrDsVRI_9-42" value="ASUS RTX 3080 TUF Gaming OC V2 10GB" style="rounded=0;whiteSpace=wrap;html=1;strokeWidth=2;fontFamily=Verdana;strokeColor=#76B900;" vertex="1" parent="1">
          <mxGeometry x="680" y="440" width="120" height="60" as="geometry" />
        </mxCell>
        <mxCell id="CsXaPJ-_1LcKrDsVRI_9-45" value="Cougar Challenger 6HM6 Mid Tower Case" style="rounded=0;whiteSpace=wrap;html=1;strokeWidth=2;fontFamily=Verdana;strokeColor=#ED6D00;" vertex="1" parent="1">
          <mxGeometry x="520" y="600" width="120" height="60" as="geometry" />
        </mxCell>
        <mxCell id="CsXaPJ-_1LcKrDsVRI_9-50" value="" style="edgeStyle=orthogonalEdgeStyle;rounded=0;orthogonalLoop=1;jettySize=auto;html=1;strokeWidth=1;fontFamily=Verdana;" edge="1" parent="1" source="CsXaPJ-_1LcKrDsVRI_9-47" target="CsXaPJ-_1LcKrDsVRI_9-49">
          <mxGeometry relative="1" as="geometry" />
        </mxCell>
        <mxCell id="CsXaPJ-_1LcKrDsVRI_9-47" value="Corsair Hydro H80i" style="rounded=0;whiteSpace=wrap;html=1;strokeWidth=1;fontFamily=Verdana;fillColor=#FFFFFF;" vertex="1" parent="1">
          <mxGeometry x="360" y="520" width="120" height="60" as="geometry" />
        </mxCell>
        <mxCell id="CsXaPJ-_1LcKrDsVRI_9-52" value="" style="edgeStyle=orthogonalEdgeStyle;rounded=0;orthogonalLoop=1;jettySize=auto;html=1;strokeWidth=1;fontFamily=Verdana;" edge="1" parent="1" source="CsXaPJ-_1LcKrDsVRI_9-49" target="CsXaPJ-_1LcKrDsVRI_9-51">
          <mxGeometry relative="1" as="geometry" />
        </mxCell>
        <mxCell id="CsXaPJ-_1LcKrDsVRI_9-49" value="NZXT Kraken X61" style="rounded=0;whiteSpace=wrap;html=1;strokeWidth=2;fontFamily=Verdana;fillColor=#FFFFFF;strokeColor=#50007F;" vertex="1" parent="1">
          <mxGeometry x="520" y="520" width="120" height="60" as="geometry" />
        </mxCell>
        <mxCell id="CsXaPJ-_1LcKrDsVRI_9-51" value="Deepcool AK620" style="rounded=0;whiteSpace=wrap;html=1;strokeWidth=2;fontFamily=Verdana;strokeColor=#068584;" vertex="1" parent="1">
          <mxGeometry x="680" y="520" width="120" height="60" as="geometry" />
        </mxCell>
        <mxCell id="CsXaPJ-_1LcKrDsVRI_9-54" value="Cougar PowerX700 700W Bronze" style="rounded=0;whiteSpace=wrap;html=1;strokeWidth=2;fontFamily=Verdana;strokeColor=#ED6D00;" vertex="1" parent="1">
          <mxGeometry x="520" y="680" width="120" height="60" as="geometry" />
        </mxCell>
        <mxCell id="CsXaPJ-_1LcKrDsVRI_9-90" style="edgeStyle=orthogonalEdgeStyle;rounded=0;orthogonalLoop=1;jettySize=auto;html=1;entryX=0;entryY=0.5;entryDx=0;entryDy=0;" edge="1" parent="1" source="CsXaPJ-_1LcKrDsVRI_9-56" target="CsXaPJ-_1LcKrDsVRI_9-64">
          <mxGeometry relative="1" as="geometry" />
        </mxCell>
        <mxCell id="CsXaPJ-_1LcKrDsVRI_9-56" value="&lt;div&gt;HDD Seagate Barracuda 7200RPM 1TB&lt;/div&gt;" style="whiteSpace=wrap;html=1;strokeWidth=2;fontFamily=Verdana;fillColor=#FFFFFF;strokeColor=#70BF4E;" vertex="1" parent="1">
          <mxGeometry x="200" y="780" width="120" height="60" as="geometry" />
        </mxCell>
        <mxCell id="CsXaPJ-_1LcKrDsVRI_9-58" value="SSD Samsung 840 EVO 250GB" style="whiteSpace=wrap;html=1;strokeWidth=2;fontFamily=Verdana;strokeColor=#293895;" vertex="1" parent="1">
          <mxGeometry x="520" y="1100" width="120" height="60" as="geometry" />
        </mxCell>
        <mxCell id="CsXaPJ-_1LcKrDsVRI_9-62" value="SSD Intel 530 Series 120GB" style="whiteSpace=wrap;html=1;strokeWidth=2;fontFamily=Verdana;strokeColor=#0171C3;" vertex="1" parent="1">
          <mxGeometry x="520" y="1020" width="120" height="60" as="geometry" />
        </mxCell>
        <mxCell id="CsXaPJ-_1LcKrDsVRI_9-64" value="HDD Seagate Barracuda 7200RPM 2TB" style="whiteSpace=wrap;html=1;strokeWidth=2;fontFamily=Verdana;fillColor=#FFFFFF;strokeColor=#70BF4E;" vertex="1" parent="1">
          <mxGeometry x="360" y="780" width="120" height="60" as="geometry" />
        </mxCell>
        <mxCell id="CsXaPJ-_1LcKrDsVRI_9-67" value="Sapphire Radeon HD7870 XT with Boost" style="rounded=0;whiteSpace=wrap;html=1;strokeWidth=2;fontFamily=Verdana;fillColor=#FFFFFF;strokeColor=#E41B23;" vertex="1" parent="1">
          <mxGeometry x="360" y="440" width="120" height="60" as="geometry" />
        </mxCell>
        <mxCell id="CsXaPJ-_1LcKrDsVRI_9-68" value="HDD Seagate Barracuda 5400RPM 4TB" style="whiteSpace=wrap;html=1;strokeWidth=2;fontFamily=Verdana;strokeColor=#70BF4E;" vertex="1" parent="1">
          <mxGeometry x="520" y="940" width="120" height="60" as="geometry" />
        </mxCell>
        <mxCell id="CsXaPJ-_1LcKrDsVRI_9-69" value="&lt;div&gt;SSD Kingston KC3000 2TB&lt;/div&gt;" style="whiteSpace=wrap;html=1;strokeWidth=2;fontFamily=Verdana;strokeColor=#FF0025;" vertex="1" parent="1">
          <mxGeometry x="680" y="1180" width="120" height="60" as="geometry" />
        </mxCell>
        <mxCell id="CsXaPJ-_1LcKrDsVRI_9-92" value="&lt;h1&gt;Upgrade History&lt;/h1&gt;" style="text;html=1;strokeColor=none;fillColor=none;spacing=5;spacingTop=-20;whiteSpace=wrap;overflow=hidden;rounded=0;align=center;" vertex="1" parent="1">
          <mxGeometry x="240" y="100" width="520" height="40" as="geometry" />
        </mxCell>
        <mxCell id="CsXaPJ-_1LcKrDsVRI_9-94" value="&lt;font style=&quot;font-size: 16px;&quot;&gt;2012&lt;/font&gt;" style="text;html=1;strokeColor=none;fillColor=none;align=center;verticalAlign=middle;whiteSpace=wrap;rounded=0;" vertex="1" parent="1">
          <mxGeometry x="200" y="150" width="120" height="30" as="geometry" />
        </mxCell>
        <mxCell id="CsXaPJ-_1LcKrDsVRI_9-95" value="&lt;div style=&quot;font-size: 16px;&quot;&gt;&lt;font style=&quot;font-size: 16px;&quot;&gt;2022&lt;/font&gt;&lt;/div&gt;" style="text;html=1;strokeColor=none;fillColor=none;align=center;verticalAlign=middle;whiteSpace=wrap;rounded=0;" vertex="1" parent="1">
          <mxGeometry x="680" y="150" width="120" height="30" as="geometry" />
        </mxCell>
        <mxCell id="CsXaPJ-_1LcKrDsVRI_9-97" value="" style="endArrow=classic;html=1;rounded=0;" edge="1" parent="1">
          <mxGeometry width="50" height="50" relative="1" as="geometry">
            <mxPoint x="280" y="164.88" as="sourcePoint" />
            <mxPoint x="720" y="164.88" as="targetPoint" />
          </mxGeometry>
        </mxCell>
      </root>
    </mxGraphModel>
  </diagram>
</mxfile>
